# xmcd CD database file
#
# Track frame offsets:
#	150
#	14811
#	27018
#	37770
#	50118
#	62571
#	75344
#	90104
#	107127
#	119497
#	134290
#	150649
#	161747
#	172164
#	182163
#	194581
#	206862
#	221246
#	234458
#	249284
#	260156
#	273719
#	288930
#	301179
#	311287
#	324917
#	336724
#
# Disc length: 4634 seconds
#
# Revision: 0
# Processed by: cddbd v1.4PL0 Copyright (c) Steve Scherf et al.
# Submitted via: CdAid 2001.05.15.01
#
DISCID=8c12181b
DTITLE=Elmore James - Let's Cut It The Very Best Of Elmore James
DYEAR=1900
DGENRE=
TTITLE0=Dust My Blues
TTITLE1=Blues Before Sunrise
TTITLE2=No Love In My Heart
TTITLE3=Sho Nuff I Do
TTITLE4=Standing At The Crossroads
TTITLE5=I Was A Fool
TTITLE6=Sunnyland
TTITLE7=Canton Mississippi Breakdown
TTITLE8=Happy Home
TTITLE9=Wild About Yo Baby
TTITLE10=Long Tall Woman
TTITLE11=So Mean To Me
TTITLE12=Hawaiin Boogie
TTITLE13=Mean And Evil
TTITLE14=Dark And Dreary
TTITLE15=My Best Friend
TTITLE16=I Believe
TTITLE17=Goodbye Baby
TTITLE18=Whose Muddy Shoes
TTITLE19=Madison Blues
TTITLE20=I See My Baby
TTITLE21=My Best Friend
TTITLE22=The Sun Is Shining
TTITLE23=Talk To Me Baby
TTITLE24=Dust My Broom
TTITLE25=Tool Bag Boogie
TTITLE26=Stormy Monday
EXTD=
EXTT0=
EXTT1=
EXTT2=
EXTT3=
EXTT4=
EXTT5=
EXTT6=
EXTT7=
EXTT8=
EXTT9=
EXTT10=
EXTT11=
EXTT12=
EXTT13=
EXTT14=
EXTT15=
EXTT16=
EXTT17=
EXTT18=
EXTT19=
EXTT20=
EXTT21=
EXTT22=
EXTT23=
EXTT24=
EXTT25=
EXTT26=
PLAYORDER=
